<svg width="1600" height="1000" viewBox="0 0 1600 1000" fill="none" xmlns="http://www.w3.org/2000/svg">
  <defs>
    <radialGradient id="bg-a" cx="0" cy="0" r="1" gradientUnits="userSpaceOnUse" gradientTransform="translate(315 125) rotate(46) scale(1080 780)">
      <stop offset="0" stop-color="#8FE8FF"/>
      <stop offset="0.42" stop-color="#3EA7D7"/>
      <stop offset="1" stop-color="#1C4E86"/>
    </radialGradient>
    <radialGradient id="bg-b" cx="0" cy="0" r="1" gradientUnits="userSpaceOnUse" gradientTransform="translate(1200 850) rotate(-142) scale(780 520)">
      <stop offset="0" stop-color="#A7FFD8" stop-opacity="0.86"/>
      <stop offset="0.52" stop-color="#54B6D9" stop-opacity="0.24"/>
      <stop offset="1" stop-color="#102E54" stop-opacity="0"/>
    </radialGradient>
    <linearGradient id="glass" x1="388" y1="198" x2="1208" y2="806" gradientUnits="userSpaceOnUse">
      <stop stop-color="#FFFFFF" stop-opacity="0.46"/>
      <stop offset="0.42" stop-color="#FFFFFF" stop-opacity="0.18"/>
      <stop offset="1" stop-color="#BEEBFF" stop-opacity="0.10"/>
    </linearGradient>
    <linearGradient id="tile" x1="0" y1="0" x2="1" y2="1">
      <stop stop-color="#FFFFFF" stop-opacity="0.32"/>
      <stop offset="1" stop-color="#FFFFFF" stop-opacity="0.10"/>
    </linearGradient>
    <linearGradient id="line" x1="430" y1="692" x2="1168" y2="692" gradientUnits="userSpaceOnUse">
      <stop stop-color="#B9FFE0"/>
      <stop offset="0.48" stop-color="#FFFFFF"/>
      <stop offset="1" stop-color="#8AD7FF"/>
    </linearGradient>
    <filter id="shadow" x="273" y="150" width="1054" height="742" filterUnits="userSpaceOnUse" color-interpolation-filters="sRGB">
      <feDropShadow dx="0" dy="38" stdDeviation="42" flood-color="#0B2345" flood-opacity="0.34"/>
    </filter>
    <filter id="soft" x="-100" y="-100" width="1800" height="1200" filterUnits="userSpaceOnUse" color-interpolation-filters="sRGB">
      <feGaussianBlur stdDeviation="54"/>
    </filter>
  </defs>

  <rect width="1600" height="1000" rx="0" fill="#173C70"/>
  <rect width="1600" height="1000" fill="url(#bg-a)"/>
  <rect width="1600" height="1000" fill="url(#bg-b)"/>

  <g filter="url(#soft)" opacity="0.58">
    <ellipse cx="1140" cy="210" rx="330" ry="150" fill="#D5F8FF" fill-opacity="0.24"/>
    <ellipse cx="265" cy="780" rx="310" ry="150" fill="#93FFC9" fill-opacity="0.18"/>
  </g>

  <g filter="url(#shadow)">
    <rect x="332" y="196" width="936" height="638" rx="86" fill="url(#glass)"/>
    <rect x="333.5" y="197.5" width="933" height="635" rx="84.5" stroke="white" stroke-opacity="0.46" stroke-width="3"/>
    <rect x="360" y="224" width="882" height="584" rx="66" stroke="white" stroke-opacity="0.14" stroke-width="2"/>

    <g opacity="0.95">
      <circle cx="426" cy="302" r="15" fill="#A8FFD2"/>
      <text x="458" y="318" fill="white" fill-opacity="0.95" font-family="-apple-system, BlinkMacSystemFont, SF Pro Display, Helvetica, Arial, sans-serif" font-size="54" font-weight="700">Macmontor</text>
      <text x="992" y="313" fill="white" fill-opacity="0.58" font-family="SF Mono, ui-monospace, Menlo, monospace" font-size="30" font-weight="600">LIVE</text>
    </g>

    <g transform="translate(402 390)">
      <rect width="226" height="168" rx="32" fill="url(#tile)" stroke="white" stroke-opacity="0.26" stroke-width="2"/>
      <rect x="30" y="34" width="8" height="100" rx="4" fill="#A5FFD3"/>
      <text x="66" y="62" fill="white" fill-opacity="0.62" font-family="SF Mono, ui-monospace, Menlo, monospace" font-size="22" font-weight="700">CPU</text>
      <text x="66" y="114" fill="white" font-family="SF Pro Display, -apple-system, Helvetica, Arial, sans-serif" font-size="54" font-weight="700">18%</text>
      <text x="68" y="142" fill="white" fill-opacity="0.74" font-family="SF Mono, ui-monospace, Menlo, monospace" font-size="18" font-weight="700">load</text>
    </g>

    <g transform="translate(686 390)">
      <rect width="226" height="168" rx="32" fill="url(#tile)" stroke="white" stroke-opacity="0.26" stroke-width="2"/>
      <rect x="30" y="34" width="8" height="100" rx="4" fill="#C4F4FF"/>
      <text x="66" y="62" fill="white" fill-opacity="0.62" font-family="SF Mono, ui-monospace, Menlo, monospace" font-size="22" font-weight="700">MEMORY</text>
      <text x="66" y="114" fill="white" font-family="SF Pro Display, -apple-system, Helvetica, Arial, sans-serif" font-size="54" font-weight="700">15.8</text>
      <text x="68" y="142" fill="white" fill-opacity="0.74" font-family="SF Mono, ui-monospace, Menlo, monospace" font-size="18" font-weight="700">GB used</text>
    </g>

    <g transform="translate(970 390)">
      <rect width="226" height="168" rx="32" fill="url(#tile)" stroke="white" stroke-opacity="0.26" stroke-width="2"/>
      <rect x="30" y="34" width="8" height="100" rx="4" fill="#8ED7FF"/>
      <text x="66" y="62" fill="white" fill-opacity="0.62" font-family="SF Mono, ui-monospace, Menlo, monospace" font-size="22" font-weight="700">NETWORK</text>
      <text x="66" y="114" fill="white" font-family="SF Pro Display, -apple-system, Helvetica, Arial, sans-serif" font-size="48" font-weight="700">42K</text>
      <text x="68" y="142" fill="white" fill-opacity="0.74" font-family="SF Mono, ui-monospace, Menlo, monospace" font-size="18" font-weight="700">per sec</text>
    </g>

    <g transform="translate(402 606)">
      <rect width="794" height="140" rx="34" fill="white" fill-opacity="0.10" stroke="white" stroke-opacity="0.22" stroke-width="2"/>
      <text x="34" y="42" fill="white" fill-opacity="0.60" font-family="SF Mono, ui-monospace, Menlo, monospace" font-size="21" font-weight="700">PERFORMANCE 60s</text>
      <path d="M34 101 C86 92 116 82 168 88 C212 93 245 101 290 91 C333 82 360 75 405 84 C452 93 476 112 528 98 C578 85 604 71 650 78 C696 84 727 96 760 88" stroke="url(#line)" stroke-width="8" stroke-linecap="round"/>
      <path d="M34 122 H760" stroke="white" stroke-opacity="0.18" stroke-width="2"/>
      <path d="M34 72 H760" stroke="white" stroke-opacity="0.12" stroke-width="2"/>
    </g>
  </g>
</svg>
